<svg width="149" height="31" viewBox="0 0 149 31" fill="none" xmlns="http://www.w3.org/2000/svg">
<g clip-path="url(#clip0_3_401)">
<path d="M18.4313 4.34588H9.41664C8.22109 4.34588 7.24198 3.36677 7.24198 2.17122C7.24542 0.979111 8.22453 0 9.42007 0H18.4348C19.6303 0 20.6094 0.97911 20.6094 2.17466C20.6094 3.3702 19.6303 4.34931 18.4348 4.34931L18.4313 4.34588ZM16.9438 19.2387C16.9438 18.0431 15.9647 17.064 14.7691 17.064H2.17466C0.97911 17.064 0 18.0431 0 19.2387C0 20.4342 0.97911 21.4133 2.17466 21.4133H14.7725C15.9681 21.4133 16.9472 20.4342 16.9472 19.2387H16.9438ZM35.9866 2.17466C35.9866 0.97911 35.0075 0 33.8119 0H25.9825C24.787 0 23.8078 0.97911 23.8078 2.17466C23.8078 3.3702 24.787 4.34931 25.9825 4.34931H33.8119C35.0075 4.34931 35.9866 3.3702 35.9866 2.17466ZM12.062 10.6362C12.062 9.44069 11.0828 8.46158 9.8873 8.46158H5.7716C4.57605 8.46158 3.59694 9.44069 3.59694 10.6362C3.59694 11.8318 4.57605 12.8109 5.7716 12.8109H9.8873C11.0828 12.8109 12.062 11.8318 12.062 10.6362ZM28.6965 19.3623V19.1219C28.6965 17.9916 27.7724 17.0674 26.6421 17.0674H22.0214C20.8911 17.0674 19.967 17.9916 19.967 19.1219V19.3623C19.967 20.4926 20.8911 21.4168 22.0214 21.4168H26.6421C27.7724 21.4168 28.6965 20.4926 28.6965 19.3623ZM32.3862 10.6362C32.3862 9.44069 31.4071 8.46158 30.2116 8.46158H17.2736C16.078 8.46158 15.0989 9.44069 15.0989 10.6362C15.0989 11.8318 16.078 12.8109 17.2736 12.8109H30.2116C31.4071 12.8109 32.3862 11.8318 32.3862 10.6362Z" fill="#3AC2E3"/>
<path d="M42.8987 0.549683H46.8667L54.8954 21.4133H50.6904L49.062 16.9094H40.7172L39.0579 21.4133H34.8391L42.8987 0.549683ZM42.0124 13.4155H47.7668L44.9051 5.32156H44.857L42.0124 13.4155Z" fill="#231F20"/>
<path d="M60.7427 27.9888H56.761V8.43753H60.7908V10.54C60.9179 10.2343 61.1927 9.8873 61.6119 9.49566C62.0344 9.10745 62.5841 8.76734 63.2643 8.48563C63.9446 8.20392 64.721 8.05963 65.597 8.05963C66.8304 8.05963 67.9057 8.35852 68.8229 8.95973C69.7402 9.56093 70.4479 10.3786 70.9495 11.4161C71.4511 12.4536 71.6984 13.6251 71.6984 14.934C71.6984 16.2429 71.4339 17.4144 70.9083 18.4519C70.3826 19.4895 69.6475 20.3071 68.7096 20.9014C67.7717 21.4958 66.6826 21.7947 65.439 21.7947C64.5011 21.7947 63.6938 21.6263 63.0204 21.2896C62.3471 20.953 61.818 20.5751 61.4401 20.1525C61.0622 19.7299 60.8286 19.4001 60.7461 19.1562V27.9923L60.7427 27.9888ZM67.7614 14.934C67.7614 14.2057 67.6068 13.5667 67.2942 13.0136C66.9815 12.4605 66.5693 12.0276 66.0539 11.7184C65.5386 11.4092 64.9649 11.2512 64.3328 11.2512C63.6697 11.2512 63.0685 11.4092 62.5291 11.7253C61.9932 12.0413 61.5672 12.4777 61.258 13.0308C60.9454 13.5839 60.7908 14.2194 60.7908 14.934C60.7908 15.6486 60.9454 16.2842 61.258 16.8373C61.5672 17.3904 61.9932 17.8233 62.5291 18.1324C63.0651 18.4451 63.6663 18.5997 64.3328 18.5997C64.9993 18.5997 65.5386 18.4485 66.0539 18.1428C66.5693 17.837 66.985 17.4076 67.2942 16.8544C67.6033 16.3013 67.7614 15.6623 67.7614 14.934Z" fill="#231F20"/>
<path d="M78.2738 27.9888H74.2921V8.43753H78.3219V10.54C78.449 10.2343 78.7239 9.8873 79.143 9.49566C79.5656 9.10745 80.1152 8.76734 80.7955 8.48563C81.4757 8.20392 82.2521 8.05963 83.1282 8.05963C84.3615 8.05963 85.4368 8.35852 86.3541 8.95973C87.2713 9.56093 87.979 10.3786 88.4806 11.4161C88.9822 12.4536 89.2296 13.6251 89.2296 14.934C89.2296 16.2429 88.965 17.4144 88.4394 18.4519C87.9138 19.4895 87.1786 20.3071 86.2407 20.9014C85.3028 21.4958 84.2138 21.7947 82.9701 21.7947C82.0322 21.7947 81.2249 21.6263 80.5516 21.2896C79.8782 20.953 79.3491 20.5751 78.9712 20.1525C78.5933 19.7299 78.3597 19.4001 78.2773 19.1562V27.9923L78.2738 27.9888ZM85.2891 14.934C85.2891 14.2057 85.1345 13.5667 84.8218 13.0136C84.5092 12.4605 84.097 12.0276 83.5816 11.7184C83.0663 11.4092 82.4926 11.2512 81.8605 11.2512C81.1974 11.2512 80.5962 11.4092 80.0568 11.7253C79.5209 12.0413 79.0949 12.4777 78.7857 13.0308C78.4731 13.5839 78.3185 14.2194 78.3185 14.934C78.3185 15.6486 78.4731 16.2842 78.7857 16.8373C79.0949 17.3904 79.5209 17.8233 80.0568 18.1324C80.5928 18.4451 81.194 18.5997 81.8605 18.5997C82.5269 18.5997 83.0663 18.4485 83.5816 18.1428C84.097 17.837 84.5127 17.4076 84.8218 16.8544C85.131 16.3013 85.2891 15.6623 85.2891 14.934Z" fill="#231F20"/>
<path d="M98.5019 18.5997C99.1856 18.5997 99.7456 18.4829 100.178 18.2527C100.611 18.0225 100.893 17.8473 101.03 17.7305L102.896 20.4961C102.748 20.6129 102.473 20.7743 102.075 20.9873C101.673 21.1969 101.164 21.3858 100.549 21.5473C99.9345 21.7122 99.2303 21.7912 98.4401 21.7912C97.0693 21.7912 95.8429 21.513 94.7573 20.9598C93.6717 20.4067 92.8162 19.6166 92.1875 18.5894C91.5588 17.5622 91.2462 16.3357 91.2462 14.9134C91.2462 13.4911 91.5588 12.2509 92.1875 11.2306C92.8162 10.2102 93.6717 9.42352 94.7573 8.87384C95.8429 8.32417 97.0693 8.05276 98.4401 8.05276C99.22 8.05276 99.9139 8.13865 100.519 8.30699C101.123 8.47533 101.632 8.66772 102.044 8.88415C102.456 9.10058 102.738 9.27579 102.896 9.41321L100.982 12.1959C100.91 12.1101 100.766 11.9967 100.556 11.849C100.347 11.7012 100.069 11.5638 99.725 11.4367C99.3814 11.3096 98.9726 11.2478 98.4985 11.2478C97.9179 11.2478 97.3682 11.3989 96.846 11.7047C96.3238 12.0104 95.9013 12.4364 95.5749 12.9861C95.2485 13.5358 95.0836 14.1782 95.0836 14.9134C95.0836 15.6486 95.2451 16.2979 95.5749 16.851C95.9013 17.4041 96.3273 17.8336 96.846 18.1393C97.3682 18.4451 97.9179 18.5962 98.4985 18.5962L98.5019 18.5997Z" fill="#231F20"/>
<path d="M108.128 15.8169C108.159 16.4078 108.317 16.9335 108.602 17.3972C108.887 17.861 109.3 18.2252 109.843 18.4863C110.385 18.7508 111.041 18.8814 111.811 18.8814C112.484 18.8814 113.082 18.7955 113.604 18.6271C114.127 18.4588 114.57 18.2527 114.93 18.0122C115.295 17.7683 115.559 17.5278 115.727 17.2839L117.404 19.7334C117.098 20.1113 116.703 20.4583 116.219 20.7674C115.734 21.0801 115.116 21.3274 114.36 21.5095C113.604 21.6916 112.666 21.7878 111.54 21.7878C110.117 21.7878 108.867 21.5095 107.795 20.9495C106.72 20.3895 105.881 19.5856 105.273 18.531C104.669 17.4763 104.363 16.2223 104.363 14.7691C104.363 13.5049 104.634 12.3643 105.177 11.3474C105.72 10.3305 106.507 9.52657 107.534 8.93567C108.561 8.34477 109.798 8.04932 111.241 8.04932C112.601 8.04932 113.776 8.31041 114.772 8.8326C115.769 9.3548 116.542 10.114 117.088 11.1172C117.634 12.1204 117.909 13.3399 117.909 14.7828C117.909 14.8687 117.909 15.0405 117.902 15.305C117.895 15.5696 117.885 15.7379 117.861 15.8101H108.125L108.128 15.8169ZM114.151 13.3365C114.14 12.9998 114.037 12.6357 113.841 12.2475C113.646 11.8593 113.34 11.526 112.924 11.2512C112.508 10.9763 111.962 10.8389 111.289 10.8389C110.615 10.8389 110.042 10.9729 109.605 11.2409C109.169 11.5088 108.843 11.8352 108.626 12.2131C108.41 12.591 108.279 12.9655 108.238 13.3365H114.151Z" fill="#231F20"/>
<path d="M128.899 8.05618C129.785 8.05618 130.648 8.23826 131.493 8.60242C132.335 8.96658 133.028 9.54374 133.571 10.3339C134.114 11.1241 134.385 12.1581 134.385 13.4327V21.4133H130.356V14.1267C130.356 13.0617 130.105 12.2715 129.603 11.7562C129.102 11.2409 128.446 10.9832 127.635 10.9832C127.109 10.9832 126.604 11.1275 126.127 11.4161C125.646 11.7047 125.257 12.1066 124.959 12.6185C124.66 13.1304 124.509 13.711 124.509 14.3637V21.4133H120.492V8.43752H124.509V10.5091C124.625 10.1518 124.886 9.78079 125.299 9.40289C125.711 9.02499 126.23 8.70549 126.862 8.44783C127.494 8.19017 128.174 8.05962 128.899 8.05962V8.05618Z" fill="#231F20"/>
<path d="M136.388 8.43754H138.728V3.11255H142.71V8.43754H145.778V11.7734H142.71V16.4697C142.71 17.0915 142.809 17.5725 143.012 17.916C143.211 18.2596 143.527 18.4313 143.96 18.4313C144.287 18.4313 144.555 18.3661 144.768 18.2321C144.977 18.1015 145.104 18.0088 145.145 17.9538L146.568 20.8293C146.506 20.8911 146.3 21.0045 145.96 21.1625C145.616 21.3206 145.18 21.4649 144.647 21.5988C144.115 21.7294 143.517 21.7981 142.854 21.7981C141.662 21.7981 140.679 21.4546 139.899 20.764C139.12 20.0735 138.731 19.0016 138.731 17.5484V11.7803H136.392V8.44441L136.388 8.43754Z" fill="#231F20"/>
<path d="M145.248 31.0017C147.32 31.0017 149 29.3229 149 27.2519C149 25.1809 147.32 23.5021 145.248 23.5021L94.187 23.5021C92.1151 23.5021 90.4355 25.1809 90.4355 27.2519C90.4355 29.3229 92.1151 31.0017 94.187 31.0017L145.248 31.0017Z" fill="#3AC2E3"/>
<path d="M98.0965 25.237H98.9279L100.611 29.6138H99.7284L99.3883 28.669H97.6362L97.2892 29.6138H96.4028L98.0931 25.237H98.0965ZM97.911 27.9373H99.1169L98.5157 26.2402H98.5054L97.9076 27.9373H97.911Z" fill="white"/>
<path d="M106.235 28.8752C106.465 28.8752 106.668 28.8442 106.85 28.7755C107.029 28.7103 107.159 28.645 107.245 28.5831L107.599 29.2909C107.496 29.3802 107.321 29.4695 107.073 29.5588C106.826 29.6481 106.527 29.6962 106.184 29.6962C105.861 29.6962 105.558 29.6378 105.28 29.5245C105.002 29.4111 104.751 29.2531 104.542 29.0469C104.329 28.8442 104.164 28.6038 104.043 28.3289C103.923 28.0541 103.865 27.7552 103.865 27.4357C103.865 27.1162 103.923 26.8173 104.043 26.539C104.16 26.2608 104.329 26.0203 104.538 25.8141C104.751 25.608 104.998 25.4466 105.28 25.3332C105.562 25.2198 105.864 25.1614 106.187 25.1614C106.531 25.1614 106.83 25.2061 107.077 25.2988C107.324 25.3916 107.499 25.4775 107.603 25.5668L107.249 26.2745C107.163 26.2092 107.032 26.144 106.854 26.0787C106.675 26.0134 106.469 25.9825 106.239 25.9825C106.008 25.9825 105.795 26.0203 105.613 26.0959C105.431 26.1714 105.277 26.2745 105.15 26.4085C105.023 26.5425 104.926 26.6971 104.861 26.8723C104.796 27.0475 104.761 27.233 104.761 27.4288C104.761 27.6246 104.796 27.8136 104.861 27.9922C104.926 28.1675 105.023 28.322 105.15 28.456C105.277 28.59 105.431 28.6931 105.613 28.7687C105.795 28.8442 106.005 28.882 106.239 28.882L106.235 28.8752Z" fill="white"/>
<path d="M112.601 25.237H113.433L115.116 29.6138H114.233L113.893 28.669H112.141L111.794 29.6138H110.907L112.598 25.237H112.601ZM112.416 27.9373H113.622L113.02 26.2402H113.01L112.412 27.9373H112.416Z" fill="white"/>
<path d="M118.5 25.237H119.706C120.173 25.237 120.558 25.3298 120.86 25.5187C121.162 25.7077 121.393 25.9619 121.54 26.2917C121.688 26.6215 121.767 26.9994 121.767 27.422C121.767 27.8445 121.691 28.2259 121.54 28.5557C121.389 28.8855 121.162 29.1431 120.86 29.3321C120.558 29.521 120.17 29.6138 119.706 29.6138H118.5V25.237ZM119.324 25.9756V28.8752H119.637C119.922 28.8752 120.156 28.8133 120.341 28.6897C120.527 28.566 120.664 28.3942 120.757 28.1743C120.85 27.9545 120.894 27.7071 120.894 27.4323C120.894 27.154 120.853 26.9032 120.76 26.6868C120.671 26.4669 120.53 26.2951 120.345 26.168C120.159 26.0409 119.922 25.9791 119.637 25.9791H119.324V25.9756Z" fill="white"/>
<path d="M125.388 25.237H128.105V25.9688H126.212V27.0647H128.078V27.7758H126.212V28.882H128.105V29.6138H125.388V25.237Z" fill="white"/>
<path d="M136.285 25.237V29.6138H135.461V26.8104L135.502 26.1749L135.354 26.8963L134.495 29.3012H133.681L132.826 26.8963L132.682 26.1749L132.719 26.8104V29.6138H131.891V25.237H133.039L134.042 28.3564L134.093 28.6553L134.145 28.3564L135.148 25.237H136.292H136.285Z" fill="white"/>
<path d="M141.226 28.0403L139.731 25.237H140.734L141.638 27.0887L142.541 25.237H143.541L142.057 28.0403V29.6138H141.229V28.0403H141.226Z" fill="white"/>
</g>
<defs>
<clipPath id="clip0_3_401">
<rect width="149" height="31.0052" fill="white"/>
</clipPath>
</defs>
</svg>
