<svg width="10" height="11" viewBox="0 0 10 11" fill="none" xmlns="http://www.w3.org/2000/svg">
<g clip-path="url(#clip0_3_363)">
<path d="M9.16672 7.55002V8.80002C9.16719 8.91606 9.14342 9.03092 9.09693 9.13725C9.05044 9.24357 8.98226 9.33901 8.89675 9.41746C8.81124 9.49591 8.71029 9.55564 8.60037 9.59281C8.49044 9.62999 8.37396 9.6438 8.25839 9.63335C6.97623 9.49404 5.74464 9.05591 4.66255 8.35419C3.65582 7.71446 2.80228 6.86092 2.16255 5.85419C1.45838 4.76719 1.02015 3.5296 0.883387 2.24169C0.872975 2.12646 0.886668 2.01034 0.923595 1.9007C0.960523 1.79106 1.01987 1.69031 1.09787 1.60486C1.17587 1.51942 1.27081 1.45115 1.37663 1.4044C1.48246 1.35766 1.59686 1.33346 1.71255 1.33335H2.96255C3.16476 1.33136 3.3608 1.40297 3.51412 1.53483C3.66744 1.66668 3.76759 1.84979 3.79589 2.05002C3.84865 2.45005 3.94649 2.84282 4.08755 3.22085C4.14361 3.36999 4.15575 3.53207 4.12251 3.68789C4.08928 3.84371 4.01208 3.98673 3.90005 4.10002L3.37089 4.62919C3.96404 5.67233 4.82774 6.53604 5.87089 7.12919L6.40005 6.60002C6.51334 6.48799 6.65637 6.41079 6.81219 6.37756C6.96801 6.34433 7.13008 6.35646 7.27922 6.41252C7.65725 6.55358 8.05003 6.65143 8.45005 6.70419C8.65246 6.73274 8.8373 6.83469 8.96944 6.99064C9.10158 7.1466 9.17179 7.34568 9.16672 7.55002Z" stroke="#3AC2E3" stroke-linecap="round" stroke-linejoin="round"/>
</g>
<defs>
<clipPath id="clip0_3_363">
<rect width="10" height="10" fill="white" transform="translate(0 0.5)"/>
</clipPath>
</defs>
</svg>
