<svg width="10" height="11" viewBox="0 0 10 11" fill="none" xmlns="http://www.w3.org/2000/svg">
<g clip-path="url(#clip0_3_358)">
<path d="M4.16663 5.91667C4.34556 6.15589 4.57386 6.35383 4.83602 6.49706C5.09819 6.6403 5.38809 6.72547 5.68606 6.74681C5.98404 6.76815 6.28312 6.72516 6.56302 6.62075C6.84292 6.51634 7.09709 6.35295 7.30829 6.14167L8.55829 4.89167C8.93779 4.49875 9.14778 3.9725 9.14303 3.42625C9.13828 2.88001 8.91918 2.35748 8.53291 1.97122C8.14665 1.58495 7.62412 1.36585 7.07788 1.3611C6.53163 1.35635 6.00538 1.56634 5.61246 1.94584L4.89579 2.65834" stroke="#3AC2E3" stroke-linecap="round" stroke-linejoin="round"/>
<path d="M5.83329 5.08333C5.65436 4.84411 5.42606 4.64617 5.1639 4.50293C4.90173 4.3597 4.61183 4.27453 4.31386 4.25319C4.01588 4.23185 3.7168 4.27484 3.4369 4.37925C3.157 4.48366 2.90283 4.64705 2.69163 4.85833L1.44163 6.10833C1.06213 6.50125 0.852144 7.0275 0.85689 7.57375C0.861637 8.11999 1.08074 8.64252 1.46701 9.02878C1.85327 9.41505 2.3758 9.63415 2.92204 9.6389C3.46828 9.64364 3.99454 9.43366 4.38746 9.05416L5.09996 8.34166" stroke="#3AC2E3" stroke-linecap="round" stroke-linejoin="round"/>
</g>
<defs>
<clipPath id="clip0_3_358">
<rect width="10" height="10" fill="white" transform="translate(0 0.5)"/>
</clipPath>
</defs>
</svg>
